<svg xmlns="http://www.w3.org/2000/svg" style="display: none;"><symbol id="icon-arrow-down" viewBox="0 0 438.533 438.533">
    <path d="M409.133 109.203c-19.608-33.592-46.205-60.19-79.798-79.796C295.735 9.8 259.058 0 219.273 0c-39.78 0-76.47 9.8-110.063 29.407-33.595 19.604-60.192 46.2-79.8 79.796C9.8 142.8 0 179.49 0 219.267c0 39.78 9.804 76.463 29.407 110.062 19.607 33.59 46.204 60.188 79.8 79.797 33.596 19.605 70.282 29.407 110.062 29.407s76.47-9.802 110.064-29.407c33.593-19.602 60.19-46.206 79.795-79.798 19.602-33.597 29.402-70.285 29.402-110.063 0-39.782-9.8-76.472-29.4-110.064zM361.45 232.4L258.1 335.754l-25.98 25.98c-3.426 3.423-7.707 5.134-12.85 5.134-5.135 0-9.418-1.712-12.846-5.134l-25.98-25.98L77.085 232.398c-3.422-3.43-5.137-7.708-5.137-12.85 0-5.137 1.708-9.42 5.136-12.847l25.98-25.98c3.622-3.618 7.9-5.425 12.85-5.425 4.953 0 9.236 1.807 12.85 5.424l53.96 53.955V91.36c0-4.95 1.81-9.233 5.426-12.847 3.616-3.618 7.898-5.428 12.847-5.428h36.546c4.948 0 9.233 1.81 12.847 5.428 3.614 3.614 5.428 7.898 5.428 12.847v143.318l53.955-53.955c3.43-3.427 7.703-5.14 12.847-5.14 5.14 0 9.42 1.713 12.847 5.14l25.98 25.98c3.432 3.428 5.14 7.71 5.14 12.848 0 5.142-1.71 9.424-5.14 12.85z"/>
</symbol><symbol id="icon-arrow-right" viewBox="0 0 438.533 438.533">
    <path d="M409.133 109.203c-19.608-33.592-46.205-60.19-79.798-79.796C295.735 9.8 259.058 0 219.273 0c-39.78 0-76.47 9.8-110.063 29.407-33.595 19.604-60.192 46.2-79.8 79.796C9.8 142.8 0 179.49 0 219.267c0 39.78 9.804 76.463 29.407 110.062 19.607 33.59 46.204 60.188 79.8 79.797 33.596 19.605 70.282 29.407 110.062 29.407s76.47-9.802 110.064-29.407c33.593-19.602 60.19-46.206 79.795-79.798 19.602-33.597 29.402-70.285 29.402-110.063 0-39.782-9.8-76.472-29.4-110.064zm-47.4 122.908l-25.978 25.982-103.35 103.35c-3.433 3.43-7.714 5.146-12.852 5.146-5.137 0-9.42-1.718-12.847-5.147l-25.98-25.98c-3.617-3.606-5.425-7.897-5.425-12.846 0-4.942 1.81-9.227 5.425-12.847l53.962-53.954H91.363c-4.948 0-9.23-1.813-12.847-5.428-3.615-3.613-5.424-7.898-5.424-12.847V200.99c0-4.947 1.81-9.23 5.424-12.846 3.617-3.617 7.898-5.426 12.847-5.426h143.325l-53.962-53.96c-3.428-3.427-5.14-7.707-5.14-12.846 0-5.14 1.712-9.42 5.14-12.85l25.98-25.982c3.428-3.425 7.71-5.137 12.848-5.137 5.145 0 9.42 1.71 12.852 5.137l103.35 103.356 25.978 25.98c3.432 3.428 5.144 7.708 5.144 12.848 0 5.14-1.713 9.422-5.145 12.847z"/>
</symbol><symbol id="icon-babes" viewBox="0 0 159.049 159.049">
    <path d="M41.31 91.483c2.96 0 5.354 2.4 5.354 5.36 0 2.964-2.4 5.35-5.355 5.35a5.356 5.356 0 0 1 0-10.71zm76.43-53.268a3.114 3.114 0 0 0-3.118 3.118c0 1.72 1.39 3.117 3.118 3.117 19.34 0 35.073 15.73 35.073 35.073 0 19.34-15.734 35.074-35.073 35.074S82.667 98.864 82.667 79.524c0-1.717-1.4-3.117-3.118-3.117H79.5a3.125 3.125 0 0 0-3.116 3.117c0 19.34-15.73 35.074-35.074 35.074S6.235 98.864 6.235 79.524c0-19.342 15.73-35.073 35.074-35.073a3.116 3.116 0 0 0 3.117-3.116 3.116 3.116 0 0 0-3.118-3.118C18.54 38.216 0 56.748 0 79.524c0 22.773 18.54 41.31 41.31 41.31 17.247 0 32.04-10.626 38.214-25.666 6.175 15.04 20.972 25.666 38.216 25.666 22.773 0 41.31-18.536 41.31-41.31 0-22.776-18.536-41.31-41.31-41.31zm0 63.997a5.36 5.36 0 0 0 5.358-5.353c0-2.98-2.4-5.365-5.358-5.365s-5.358 2.41-5.358 5.364a5.36 5.36 0 0 0 5.358 5.352z"/>
</symbol><symbol id="icon-entertainment" viewBox="0 0 361.032 361.032">
    <path d="M187.974 191.145L351.664 0H9.368l163.685 191.14V346.09h-59.675v14.94h134.91v-14.94h-60.312V191.145z"/>
</symbol><symbol id="icon-lifestyle" viewBox="0 0 32.27 32.27">
    <path d="M31.686 13.895c-.202.42-.538.748-.67 1.143-.153.448-.18.992-.27 1.477-.254 1.37-.517 2.865-1.41 3.69-.742.682-2.582 1.23-3.895 1.34-4.697.38-6.645-1.958-7.778-5.165-.344-.967-.47-1.982-1.744-1.88-1.022.084-1.068.917-1.48 2.147-.88 2.657-2.52 4.702-5.9 4.963-1.987.15-4.418-.252-5.436-1.207-.942-.89-1.28-2.683-1.608-4.294-.12-.59-.26-.84-.537-1.273a4.724 4.724 0 0 1-.335-.605c-.37-.818-.877-1.665-.472-2.818 4.346-.698 8.224-.688 12.145.066 1.25.24 2.52.642 3.758.67 1.443.036 3.19-.52 4.562-.804 3.597-.74 7.53-1.062 11.475-.2.417 1.044.038 1.827-.404 2.75z"/>
</symbol><symbol id="icon-search" viewBox="0 0 485.213 485.213">
    <g>
        <path d="M471.882 407.567L360.567 296.243a214.267 214.267 0 0 1-64.33 64.32L407.56 471.89c17.772 17.768 46.587 17.768 64.32 0 17.774-17.74 17.774-46.554.002-64.32zM363.91 181.955C363.91 81.473 282.44 0 181.955 0 81.474 0 0 81.473 0 181.955s81.474 181.95 181.956 181.95c100.484 0 181.953-81.468 181.953-181.95zm-181.954 136.46c-75.252 0-136.465-61.207-136.465-136.46 0-75.25 61.214-136.464 136.466-136.464 75.25 0 136.468 61.214 136.468 136.466 0 75.252-61.218 136.46-136.468 136.46z"/>
        <path d="M75.817 181.955h30.322c0-41.803 34.013-75.814 75.815-75.814V75.817c-58.517 0-106.138 47.62-106.138 106.14z"/>
    </g>
</symbol></svg>